<?xml version="1.0" standalone="no"?><!DOCTYPE svg PUBLIC "-//W3C//DTD SVG 1.1//EN" "http://www.w3.org/Graphics/SVG/1.1/DTD/svg11.dtd"><svg t="1713884521431" class="icon" viewBox="0 0 1024 1024" version="1.1" xmlns="http://www.w3.org/2000/svg" p-id="1671" width="20" height="20" xmlns:xlink="http://www.w3.org/1999/xlink"><path d="M985.742 749.896c0 130.902-106.178 237.004-237.17 237.004H274.298c-130.954 0-237.092-106.102-237.092-237.004V276.018c0-130.902 106.138-236.966 237.092-236.966h474.274c130.992 0 237.17 106.064 237.17 236.966v473.878z" fill="#85BF00" p-id="1672"></path><path d="M591.876 266.404l6.558-9.72 6.486-9.526 14.588-21.444a5.766 5.766 0 0 0-1.622-7.982c-2.702-1.736-6.33-1.042-8.104 1.62l-15.632 22.988-6.558 9.68-6.68 9.796c-21.036-8.062-44.616-12.534-69.434-12.534-24.818 0-48.362 4.472-69.474 12.534l-6.676-9.796-6.522-9.68-15.63-22.988c-1.776-2.622-5.404-3.356-8.106-1.62a5.696 5.696 0 0 0-1.584 7.982l14.552 21.444 6.484 9.526 6.6 9.72c-49.596 22.638-83.144 65.566-83.144 114.74h326.992c-0.002-49.174-33.578-92.102-83.094-114.74z m-150.448 68.882c-9.69 0-17.524-7.714-17.524-17.202 0-9.526 7.834-17.202 17.524-17.202 9.686 0 17.484 7.674 17.484 17.202 0 9.488-7.798 17.202-17.484 17.202z m140.104 0c-9.69 0-17.484-7.714-17.484-17.202 0-9.526 7.794-17.202 17.484-17.202 9.686 0 17.524 7.674 17.524 17.202-0.002 9.488-7.84 17.202-17.524 17.202zM674.968 656.33V404.054H347.978v252.276c0 20.018 16.578 36.33 37.024 36.33h26.668c-0.886 3.01-1.428 6.21-1.428 9.528v72.624c0 18.976 15.71 34.364 35.084 34.364 19.334 0 35.044-15.386 35.044-34.364V702.188c0-3.316-0.54-6.518-1.428-9.528h65.034a35.046 35.046 0 0 0-1.348 9.528v72.624c0 18.976 15.708 34.364 35.042 34.364 19.3 0 35.008-15.386 35.008-34.364V702.188c0-3.316-0.5-6.518-1.388-9.528H638c20.374 0 36.968-16.312 36.968-36.33zM254.576 438.458v147.178c0 18.974 15.668 34.366 35.044 34.366 19.318 0 35.024-15.39 35.024-34.366v-147.178c0-19.014-15.708-34.402-35.024-34.402-19.376-0.002-35.044 15.386-35.044 34.402zM698.322 438.458v147.178c0 18.974 15.668 34.366 35.006 34.366 19.376 0 35.042-15.39 35.042-34.366v-147.178c0-19.014-15.668-34.402-35.042-34.402-19.338-0.002-35.006 15.386-35.006 34.402z" fill="#FFFFFF" p-id="1673"></path><path d="M591.876 266.404l6.558-9.72 6.486-9.526 14.588-21.444a5.766 5.766 0 0 0-1.622-7.982c-2.702-1.736-6.33-1.042-8.104 1.62l-15.632 22.988-6.558 9.68-6.68 9.796c-21.036-8.062-44.616-12.534-69.434-12.534-24.818 0-48.362 4.472-69.474 12.534l-6.676-9.796-6.522-9.68-15.63-22.988c-1.776-2.622-5.404-3.356-8.106-1.62a5.696 5.696 0 0 0-1.584 7.982l14.552 21.444 6.484 9.526 6.6 9.72c-49.596 22.638-83.144 65.566-83.144 114.74h326.992c-0.002-49.174-33.578-92.102-83.094-114.74z m-150.448 68.882c-9.69 0-17.524-7.714-17.524-17.202 0-9.526 7.834-17.202 17.524-17.202 9.686 0 17.484 7.674 17.484 17.202 0 9.488-7.798 17.202-17.484 17.202z m140.104 0c-9.69 0-17.484-7.714-17.484-17.202 0-9.526 7.794-17.202 17.484-17.202 9.686 0 17.524 7.674 17.524 17.202-0.002 9.488-7.84 17.202-17.524 17.202zM674.968 656.33V404.054H347.978v252.276c0 20.018 16.578 36.33 37.024 36.33h26.668c-0.886 3.01-1.428 6.21-1.428 9.528v72.624c0 18.976 15.71 34.364 35.084 34.364 19.334 0 35.044-15.386 35.044-34.364V702.188c0-3.316-0.54-6.518-1.428-9.528h65.034a35.046 35.046 0 0 0-1.348 9.528v72.624c0 18.976 15.708 34.364 35.042 34.364 19.3 0 35.008-15.386 35.008-34.364V702.188c0-3.316-0.5-6.518-1.388-9.528H638c20.374 0 36.968-16.312 36.968-36.33zM254.576 438.458v147.178c0 18.974 15.668 34.366 35.044 34.366 19.318 0 35.024-15.39 35.024-34.366v-147.178c0-19.014-15.708-34.402-35.024-34.402-19.376-0.002-35.044 15.386-35.044 34.402zM698.322 438.458v147.178c0 18.974 15.668 34.366 35.006 34.366 19.376 0 35.042-15.39 35.042-34.366v-147.178c0-19.014-15.668-34.402-35.042-34.402-19.338-0.002-35.006 15.386-35.006 34.402z" fill="#FFFFFF" p-id="1674"></path><path d="M614.646 216.778c1.114 0 2.24 0.31 3.24 0.952a5.766 5.766 0 0 1 1.622 7.982l-14.588 21.444-6.486 9.526-6.558 9.72c49.518 22.638 83.094 65.566 83.094 114.74H347.976c0-49.174 33.548-92.102 83.144-114.74l-6.6-9.72-6.484-9.526-14.552-21.444a5.694 5.694 0 0 1 1.584-7.982 5.94 5.94 0 0 1 3.216-0.942c1.904 0 3.768 0.904 4.89 2.562l15.63 22.988 6.522 9.68 6.676 9.796c21.114-8.062 44.658-12.534 69.474-12.534 24.818 0 48.398 4.472 69.434 12.534l6.68-9.796 6.558-9.68 15.632-22.988a5.822 5.822 0 0 1 4.866-2.572m-33.114 118.508c9.686 0 17.524-7.714 17.524-17.202 0-9.526-7.838-17.202-17.524-17.202-9.69 0-17.484 7.674-17.484 17.202-0.002 9.488 7.794 17.202 17.484 17.202m-140.104 0c9.686 0 17.484-7.714 17.484-17.202 0-9.526-7.796-17.202-17.484-17.202-9.69 0-17.524 7.674-17.524 17.202 0 9.488 7.834 17.202 17.524 17.202m173.218-138.262a25.532 25.532 0 0 0-21.23 11.266l-15.6 22.94-4.788 7.064c-19.608-5.822-40.246-8.766-61.55-8.766-21.272 0-41.916 2.946-61.574 8.774l-4.716-7-15.678-23.056a25.596 25.596 0 0 0-21.224-11.208c-4.938 0-9.742 1.41-13.894 4.076l-0.276 0.18a25.346 25.346 0 0 0-10.912 16.348 25.268 25.268 0 0 0 3.954 19.194l14.534 21.416 0.728 1.07c-46.278 28.336-74.196 73.41-74.196 121.826 0 10.91 8.844 19.754 19.754 19.754h326.992c10.91 0 19.754-8.844 19.754-19.754 0-48.4-27.914-93.48-74.18-121.832l0.706-1.036 14.594-21.452 0.204-0.306c7.642-11.698 4.406-27.504-7.216-35.236a25.7 25.7 0 0 0-14.186-4.262z m60.322 207.03v252.276c0 20.018-16.596 36.33-36.97 36.33h-26.71c0.888 3.01 1.388 6.21 1.388 9.528v72.624c0 18.976-15.708 34.364-35.008 34.364-19.334 0-35.042-15.386-35.042-34.364V702.188c0-3.316 0.498-6.518 1.348-9.528H478.94a33.66 33.66 0 0 1 1.428 9.528v72.624c0 18.976-15.708 34.364-35.044 34.364-19.376 0-35.084-15.386-35.084-34.364V702.188c0-3.316 0.542-6.518 1.428-9.528H385c-20.446 0-37.024-16.312-37.024-36.33V404.054H674.968m0-19.754H347.978c-10.91 0-19.754 8.844-19.754 19.754v252.276c0 30.926 25.47 56.084 56.778 56.084h5.486v62.398c0 29.84 24.6 54.118 54.838 54.118 30.216 0 54.798-24.278 54.798-54.118v-62.398h22.75v62.398c0 29.84 24.58 54.118 54.794 54.118 30.196 0 54.762-24.278 54.762-54.118v-62.398h5.568c31.278 0 56.724-25.158 56.724-56.084V404.054c0-10.91-8.844-19.754-19.754-19.754z m-385.348 19.754c19.318 0 35.024 15.388 35.024 34.402v147.178c0 18.974-15.708 34.366-35.024 34.366-19.376 0-35.044-15.39-35.044-34.366v-147.178c0-19.014 15.668-34.402 35.044-34.402m0-19.754c-30.216 0-54.798 24.294-54.798 54.156v147.178c0 29.842 24.582 54.12 54.798 54.12 30.206 0 54.778-24.278 54.778-54.12v-147.178c0-29.862-24.572-54.156-54.778-54.156z m443.708 19.754c19.376 0 35.042 15.388 35.042 34.402v147.178c0 18.974-15.668 34.366-35.042 34.366-19.338 0-35.006-15.39-35.006-34.366v-147.178c0-19.014 15.668-34.402 35.006-34.402m0-19.754c-30.196 0-54.76 24.294-54.76 54.156v147.178c0 29.842 24.564 54.12 54.76 54.12 30.214 0 54.796-24.278 54.796-54.12v-147.178c0.002-29.862-24.582-54.156-54.796-54.156z" fill="#436000" p-id="1675"></path><path d="M728.078 956.122H294.83c-124.896 0-226.506-101.636-226.506-226.566V296.358c0-124.908 101.61-226.526 226.506-226.526h433.248c124.918 0 226.544 101.62 226.544 226.526v433.198c0.002 124.928-101.626 226.566-226.544 226.566zM294.83 89.636c-113.976 0-206.702 92.734-206.702 206.72v433.198c0 114.008 92.726 206.762 206.702 206.762h433.248c113.996 0 206.74-92.754 206.74-206.762V296.358c0-113.986-92.744-206.72-206.74-206.72H294.83z" fill="#436000" p-id="1676"></path></svg>