<?xml version="1.0" standalone="no"?><!DOCTYPE svg PUBLIC "-//W3C//DTD SVG 1.1//EN" "http://www.w3.org/Graphics/SVG/1.1/DTD/svg11.dtd"><svg t="1717296922089" class="icon" viewBox="0 0 1024 1024" version="1.1" xmlns="http://www.w3.org/2000/svg" p-id="25946" xmlns:xlink="http://www.w3.org/1999/xlink" width="256" height="256"><path d="M272.298667 169.301333A382.378667 382.378667 0 0 1 512 85.333333c90.666667 0 173.994667 31.402667 239.701333 83.968l61.994667-61.994666 60.330667 60.330666-61.994667 61.994667A382.378667 382.378667 0 0 1 896 469.333333v42.666667H128v-42.666667c0-90.666667 31.402667-173.994667 83.968-239.701333L149.973333 167.68l60.330667-60.330667 61.994667 61.994667zM128 597.333333h768v298.666667a42.666667 42.666667 0 0 1-42.666667 42.666667H170.666667a42.666667 42.666667 0 0 1-42.666667-42.666667v-298.666667z m256-213.333333a42.666667 42.666667 0 1 0 0-85.333333 42.666667 42.666667 0 0 0 0 85.333333z m256 0a42.666667 42.666667 0 1 0 0-85.333333 42.666667 42.666667 0 0 0 0 85.333333z" p-id="25947"></path></svg>