<?xml version="1.0" standalone="no"?><!DOCTYPE svg PUBLIC "-//W3C//DTD SVG 1.1//EN" "http://www.w3.org/Graphics/SVG/1.1/DTD/svg11.dtd"><svg t="1713883739650" class="icon" viewBox="0 0 1024 1024" version="1.1" xmlns="http://www.w3.org/2000/svg" p-id="5568" width="128" height="128" xmlns:xlink="http://www.w3.org/1999/xlink"><path d="M985.742 749.936c0 130.902-106.178 236.964-237.13 236.964H274.336c-130.994 0-237.132-106.062-237.132-236.964V276.018c0-130.864 106.138-236.966 237.132-236.966h474.274c130.954 0 237.13 106.102 237.13 236.966v473.918z" fill="#A7AAAD" p-id="5569"></path><path d="M427.534 809.138c36.936-1.504 50.868-24.262 95.446-24.262 44.656 0 57.158 24.262 96.18 23.53 39.636-0.772 64.842-36.68 89.08-72.78 28.098-41.77 39.676-82.19 40.372-84.234-0.888-0.422-77.346-30.236-78.156-119.832-0.732-75.044 60.168-111.028 62.908-112.84-34.23-50.872-87.57-57.892-106.558-58.664-45.352-4.706-88.46 27.154-111.468 27.154-23 0-58.508-26.498-96.138-25.802-49.434 0.772-95.014 29.272-120.488 74.282-51.35 90.634-13.124 224.96 36.916 298.51 24.468 35.984 53.616 76.404 91.906 74.938zM541.62 261.63c-18.832 22.216-35.312 57.622-30.916 91.678 32.732 2.584 66.038-16.932 86.418-41.924 20.258-25.07 34.04-59.936 30.294-94.608-29.29 1.194-64.762 19.824-85.796 44.854z" fill="#FFFFFF" p-id="5570"></path><path d="M427.534 809.138c36.936-1.504 50.868-24.262 95.446-24.262 44.656 0 57.158 24.262 96.18 23.53 39.636-0.772 64.842-36.68 89.08-72.78 28.098-41.77 39.676-82.19 40.372-84.234-0.888-0.422-77.346-30.236-78.156-119.832-0.732-75.044 60.168-111.028 62.908-112.84-34.23-50.872-87.57-57.892-106.558-58.664-45.352-4.706-88.46 27.154-111.468 27.154-23 0-58.508-26.498-96.138-25.802-49.434 0.772-95.014 29.272-120.488 74.282-51.35 90.634-13.124 224.96 36.916 298.51 24.468 35.984 53.616 76.404 91.906 74.938zM541.62 261.63c-18.832 22.216-35.312 57.622-30.916 91.678 32.732 2.584 66.038-16.932 86.418-41.924 20.258-25.07 34.04-59.936 30.294-94.608-29.29 1.194-64.762 19.824-85.796 44.854z" fill="#FFFFFF" p-id="5571"></path><path d="M617.484 359.582c3.09 0 6.202 0.152 9.318 0.474 18.988 0.772 72.328 7.792 106.558 58.664-2.74 1.814-63.64 37.796-62.908 112.84 0.81 89.596 77.268 119.41 78.156 119.832-0.696 2.044-12.274 42.464-40.372 84.234-24.238 36.1-49.444 72.008-89.08 72.78a83.28 83.28 0 0 1-1.722 0.016c-37.676 0-50.466-23.544-94.458-23.544-44.578 0-58.51 22.758-95.446 24.262-0.678 0.026-1.348 0.04-2.02 0.04-37.294 0-65.852-39.63-89.888-74.978-50.04-73.548-88.266-207.876-36.916-298.51 25.474-45.01 71.054-73.51 120.488-74.282 0.49-0.008 0.972-0.014 1.46-0.014 37.084 0 71.976 25.816 94.676 25.816 21.43-0.002 60.286-27.632 102.154-27.63m0.002-19.754c-28.228 0-53.974 10.336-74.66 18.644-10.488 4.21-22.376 8.984-27.492 8.984-6.126 0-17.6-4.636-28.696-9.118-18.416-7.44-41.334-16.698-65.98-16.698-0.61 0-1.214 0.006-1.824 0.016-27.688 0.432-55.116 8.56-79.262 23.506-23.808 14.736-43.882 35.758-58.054 60.798-25.604 45.192-33.156 103.556-21.834 168.77 9.328 53.724 31.054 108.608 59.61 150.58 22.642 33.296 56.864 83.622 106.22 83.622 0.922 0 1.844-0.018 2.774-0.052 20.868-0.85 35.828-7.328 49.028-13.044 13.882-6.012 25.872-11.204 45.664-11.204 18.694 0 30.046 4.996 43.194 10.784 13.594 5.982 29 12.762 51.264 12.762 0.692 0 1.386-0.006 2.094-0.02 51.042-0.992 81.022-45.642 105.11-81.518 25.296-37.608 38.216-74.506 42.596-88.626l0.138-0.444a19.756 19.756 0 0 0-11.332-24.482c-6.67-2.788-65.18-29.31-65.834-101.706-0.558-57.206 40.63-87.7 53.268-95.684 0.368-0.232 0.63-0.402 0.79-0.506a19.76 19.76 0 0 0 5.486-27.502c-16.958-25.2-39.792-43.828-67.876-55.364-22.604-9.284-43.088-11.502-53.656-11.982a111.23 111.23 0 0 0-10.736-0.516z m9.932-123.052c3.744 34.672-10.038 69.538-30.294 94.608-19.162 23.5-49.748 42.154-80.542 42.154-1.958 0-3.92-0.076-5.876-0.23-4.398-34.056 12.084-69.462 30.916-91.678 21.032-25.03 56.504-43.66 85.796-44.854m0.012-19.754c-0.272 0-0.542 0.004-0.816 0.016-35.004 1.428-75.238 22.278-100.118 51.882-20.608 24.31-40.768 65.214-35.384 106.916a19.756 19.756 0 0 0 18.038 17.164 94.46 94.46 0 0 0 7.43 0.292c34.264 0 70.992-18.938 95.852-49.424 25.66-31.756 38.584-72.558 34.626-109.214a19.754 19.754 0 0 0-19.628-17.632z" fill="#808080" p-id="5572"></path><path d="M728.078 956.122H294.83c-124.896 0-226.506-101.636-226.506-226.566V296.358c0-124.908 101.61-226.526 226.506-226.526h433.248c124.918 0 226.544 101.62 226.544 226.526v433.198c0.002 124.928-101.626 226.566-226.544 226.566zM294.83 89.636c-113.976 0-206.702 92.734-206.702 206.72v433.198c0 114.008 92.726 206.762 206.702 206.762h433.248c113.996 0 206.74-92.754 206.74-206.762V296.358c0-113.986-92.744-206.72-206.74-206.72H294.83z" fill="#808080" p-id="5573"></path></svg>