<?xml version="1.0" standalone="no"?><!DOCTYPE svg PUBLIC "-//W3C//DTD SVG 1.1//EN" "http://www.w3.org/Graphics/SVG/1.1/DTD/svg11.dtd"><svg t="1722585291456" class="icon" viewBox="0 0 1024 1024" version="1.1" xmlns="http://www.w3.org/2000/svg" p-id="2216" xmlns:xlink="http://www.w3.org/1999/xlink" width="256" height="256"><path d="M785.066667 1024H238.933333C107.140741 1024 0 916.859259 0 785.066667V238.933333C0 107.140741 107.140741 0 238.933333 0h546.133334C916.859259 0 1024 107.140741 1024 238.933333v546.133334c0 131.792593-107.140741 238.933333-238.933333 238.933333z" fill="#FFFFFF" p-id="2217"></path><path d="M350.814815 229.925926c36.503704-47.881481 94.814815-78.222222 155.022222-79.17037 40.77037-0.948148 82.014815 10.42963 115.674074 33.185185 42.666667 27.496296 73.955556 72.059259 85.333333 121.837037 1.896296 11.377778 6.162963 22.755556 4.266667 34.607407-6.162963-21.333333-27.496296-37.925926-50.251852-36.029629-24.651852 0-44.088889 21.807407-45.985185 45.511111 0.474074-52.622222-45.985185-99.555556-98.133333-101.451852-37.451852-2.844444-74.903704 17.540741-94.814815 48.829629-9.481481 14.222222-13.274074 31.288889-16.592593 47.881482-3.318519-22.755556-24.177778-41.244444-47.407407-40.77037-23.22963-0.948148-44.088889 17.066667-47.881482 39.348148 0-41.244444 16.592593-81.540741 40.770371-113.777778zM171.140741 442.785185c35.081481-39.348148 87.703704-62.577778 140.325926-61.629629 10.42963 84.859259 81.540741 156.918519 165.925926 169.718518 54.044444 9.481481 112.355556-4.740741 155.97037-38.874074 41.718519-31.288889 70.162963-79.644444 77.274074-131.318519 43.614815-1.422222 86.755556 15.17037 120.414815 43.140741 44.562963 36.503704 70.637037 94.340741 68.266667 151.703704-0.948148 82.488889-63.051852 159.762963-143.644445 178.251852-58.785185 15.17037-124.681481-0.948148-170.192593-41.244445-21.807407-19.437037-19.437037-58.785185 5.214815-74.903703 11.851852-9.955556 27.97037-9.007407 42.192593-7.585186 14.222222 4.740741 24.651852 17.066667 38.4 22.755556 26.074074 13.274074 58.311111 11.851852 83.911111-2.844444 38.874074-20.859259 58.311111-71.585185 41.718519-112.355556-15.644444-45.985185-71.111111-72.533333-116.622223-54.992593-23.703704 7.111111-39.348148 27.496296-56.888889 43.614815-59.259259 59.733333-118.992593 118.518519-178.251851 178.251852-28.918519 28.918519-67.318519 47.407407-107.614815 53.096296-56.888889 8.059259-117.096296-12.325926-157.866667-52.622222C146.962963 673.185185 126.103704 628.622222 123.733333 583.111111c-5.214815-50.725926 12.8-102.874074 47.407408-140.325926z m122.311111 36.503704c-35.555556 7.111111-65.896296 36.02963-73.007408 72.059259-11.851852 46.933333 21.807407 98.607407 68.740741 109.037037 47.407407 13.274074 100.503704-19.437037 111.407408-66.844444 10.903704-37.925926-7.585185-81.066667-41.244445-101.451852-18.962963-13.748148-43.140741-15.644444-65.896296-12.8z" fill="#2EBBFD" p-id="2218"></path><path d="M510.577778 949.57037h173.511111c-0.474074 23.22963-0.474074 46.459259 0 69.688889h-173.511111v-69.688889z" fill="#2879F2" p-id="2219"></path><path d="M310.044444 343.22963c3.792593-22.281481 25.125926-40.296296 47.881482-39.348149 23.22963-0.474074 44.088889 18.014815 47.407407 40.770371-4.740741 56.888889 43.140741 110.933333 100.02963 112.355555 58.311111 3.792593 113.303704-48.82963 109.037037-107.614814 1.896296-23.703704 21.333333-45.037037 45.985185-45.511112 22.755556-2.37037 44.088889 14.222222 50.251852 36.02963 0.948148 13.748148 0.948148 27.496296-0.948148 41.244445-7.111111 51.674074-35.555556 100.02963-77.274074 131.318518-43.614815 34.133333-101.451852 48.355556-155.970371 38.874074-83.911111-12.8-155.022222-85.333333-165.925925-169.718518 0-13.274074-0.948148-25.6-0.474075-38.4zM337.066667 950.044444c57.837037-0.474074 115.674074 0 173.511111 0v69.688889H337.066667c0.474074-23.703704 0.474074-46.933333 0-69.688889z" fill="#EF4C59" p-id="2220"></path></svg>