<?xml version="1.0" standalone="no"?><!DOCTYPE svg PUBLIC "-//W3C//DTD SVG 1.1//EN" "http://www.w3.org/Graphics/SVG/1.1/DTD/svg11.dtd"><svg t="1713885820607" class="icon" viewBox="0 0 1024 1024" version="1.1" xmlns="http://www.w3.org/2000/svg" p-id="1413" xmlns:xlink="http://www.w3.org/1999/xlink" width="32" height="32"><path d="M985.742 749.896c0 130.902-106.178 237.004-237.13 237.004H274.336c-130.994 0-237.132-106.102-237.132-237.004V276.018c0-130.902 106.138-236.966 237.132-236.966h474.274c130.954 0 237.13 106.064 237.13 236.966v473.878z" fill="#0078E6" p-id="1414"></path><path d="M420.278 631.454l-81.948 131.016-4.866 7.212h387.626l1.622-2.39 85.182-135.838zM615.766 259.086l-1.66-2.814-3.282 0.036-161.754 0.618-9.766 0.078 4.864 8.33 187.304 319.762 1.66 2.814h3.282l161.712-0.656 9.768-0.038-4.902-8.332zM496.928 422.54l-1.7-2.816-81.434-137.766-4.94-8.292-4.864 8.33-187.278 319.76-1.66 2.814 1.7 2.778 81.438 137.806 4.9 8.33 4.902-8.33 187.276-319.798z" fill="#FFFFFF" p-id="1415"></path><path d="M420.278 631.454l-81.948 131.016-4.866 7.212h387.626l1.622-2.39 85.182-135.838zM615.766 259.086l-1.66-2.814-3.282 0.036-161.754 0.618-9.766 0.078 4.864 8.33 187.304 319.762 1.66 2.814h3.282l161.712-0.656 9.768-0.038-4.902-8.332zM496.928 422.54l-1.7-2.816-81.434-137.766-4.94-8.292-4.864 8.33-187.278 319.76-1.66 2.814 1.7 2.778 81.438 137.806 4.9 8.33 4.902-8.33 187.276-319.798z" fill="#FFFFFF" p-id="1416"></path><path d="M807.894 631.454h0.01m-0.01 0l-85.182 135.838-1.624 2.39H333.464l4.864-7.21 81.948-131.018h387.618m0.01-19.754H420.278a19.752 19.752 0 0 0-16.748 9.28l-81.766 130.726-4.674 6.93a19.754 19.754 0 0 0 16.376 30.8H721.09a19.76 19.76 0 0 0 16.344-8.658l1.624-2.39c0.134-0.198 0.266-0.398 0.392-0.602l84.944-135.458a19.668 19.668 0 0 0 3.262-10.874c-0.002-10.912-8.842-19.754-19.752-19.754z m-193.798-355.428l1.66 2.814 187.226 319.798 4.902 8.332-9.768 0.038-161.712 0.656h-3.282l-1.66-2.814-187.304-319.76-4.864-8.332 9.764-0.078 161.754-0.618 3.284-0.036m0.002-19.754h-0.224l-3.208 0.036-161.682 0.618-9.846 0.078a19.758 19.758 0 0 0-16.904 29.714l4.864 8.332 187.32 319.786 1.692 2.868a19.748 19.748 0 0 0 17.014 9.716h3.282l161.792-0.656 9.762-0.038a19.758 19.758 0 0 0 16.952-29.772l-4.902-8.332-187.206-319.762-1.694-2.87a19.748 19.748 0 0 0-17.012-9.718z m-205.254 37.148l4.94 8.292 81.434 137.766 1.7 2.814-1.66 2.816-187.276 319.798-4.9 8.33-4.902-8.33-81.438-137.806-1.7-2.778 1.66-2.814 187.276-319.76 4.866-8.328m0-19.754h-0.086a19.756 19.756 0 0 0-16.972 9.792l-4.864 8.33-187.266 319.74-1.628 2.76a19.756 19.756 0 0 0 0.164 20.346l1.622 2.652 81.358 137.674 4.882 8.296a19.758 19.758 0 0 0 34.052-0.002l4.9-8.33 187.296-319.832 1.632-2.768a19.752 19.752 0 0 0-0.106-20.242l-1.652-2.736-81.388-137.686-4.974-8.352a19.756 19.756 0 0 0-16.97-9.642z m319.224 702.21H294.83c-124.896 0-226.506-101.636-226.506-226.566V296.358c0-124.908 101.61-226.526 226.506-226.526h433.248c124.918 0 226.544 101.62 226.544 226.526v433.198c0.002 124.928-101.626 226.566-226.544 226.566zM294.83 89.636c-113.976 0-206.702 92.734-206.702 206.72v433.198c0 114.008 92.726 206.762 206.702 206.762h433.248c113.996 0 206.74-92.754 206.74-206.762V296.358c0-113.986-92.744-206.72-206.74-206.72H294.83z" fill="#003C73" p-id="1417"></path></svg>