<?xml version="1.0" standalone="no"?><!DOCTYPE svg PUBLIC "-//W3C//DTD SVG 1.1//EN" "http://www.w3.org/Graphics/SVG/1.1/DTD/svg11.dtd"><svg t="1713885164609" class="icon" viewBox="0 0 1296 1024" version="1.1" xmlns="http://www.w3.org/2000/svg" p-id="21827" xmlns:xlink="http://www.w3.org/1999/xlink" width="40.5" height="32"><path d="M214.003038 916.752203l87.947342-49.864912-91.511899-54.181266 3.564557 104.046178z m49.877873-767.105621L327.939241 1.140658 160.275443 21.128101l103.605468 128.518481zM936.363747 976.558987l111.330835 31.199595-30.927392-118.563645-80.403443 87.36405zM1227.037165 261.832911c-37.563949 0-68.024709 30.72-68.024709 68.633924 0 37.900962 30.460759 68.633924 68.024709 68.633924 37.576911 0 68.037671-30.732962 68.03767-68.633924s-30.460759-68.646886-68.03767-68.646886zM246.045165 280.238987c-11.471392 0-20.791089 9.41043-20.791089 20.985519 0 11.562127 9.332658 20.972557 20.791089 20.972557 11.471392 0 20.804051-9.41043 20.80405-20.972557 0-11.575089-9.332658-20.998481-20.80405-20.998481m0 46.170734a25.094481 25.094481 0 0 1-24.951899-25.172253c0-13.882329 11.19919-25.185215 24.951899-25.185215 13.765671 0 24.951899 11.302886 24.951898 25.185215 0 13.869367-11.186228 25.172253-24.951898 25.172253m894.40567 257.049925c-34.090127 0-61.828861 27.997975-61.82886 62.399189s27.738734 62.39919 61.82886 62.39919c34.103089 0 61.854785-27.997975 61.854785-62.39919s-27.738734-62.39919-61.854785-62.399189m0 137.267848c-40.921114 0-74.207595-33.571646-74.207594-74.868659 0-41.284051 33.286481-74.868658 74.207594-74.868658 40.934076 0 74.220557 33.571646 74.220557 74.868658 0 41.284051-33.286481 74.88162-74.220557 74.881621" fill="#CADDFF" p-id="21828"></path><path d="M44.887494 481.785519C20.985519 481.785519 1.594329 501.332253 1.594329 525.467544c0 24.109367 19.39119 43.669063 43.293165 43.669064 23.901975 0 43.293165-19.546734 43.293164-43.682026 0-24.122329-19.39119-43.682025-43.293164-43.682025" fill="#CADDFF" p-id="21829"></path><path d="M695.153418 3.162734c-23.901975 0-43.293165 19.533772-43.293165 43.682025 0 24.109367 19.39119 43.682025 43.293165 43.682026 23.914937 0 43.293165-19.572658 43.293164-43.682026 0-24.148253-19.378228-43.682025-43.293164-43.682025" fill="#CADDFF" p-id="21830"></path><path d="M847.405367 422.354633c-18.807899 0-34.012354 15.035949-34.012354 33.59757v140.728708c0 18.56162 15.256304 33.59757 34.012354 33.59757 18.794937 0 34.012354-15.035949 34.012355-33.59757V455.952203c0-18.56162-15.204456-33.59757-34.012355-33.59757z m-129.490633-60.182684a12.780557 12.780557 0 0 1-12.858329-12.702784c0-7.025418 5.755139-12.715747 12.845367-12.715747 7.090228 0 12.832405 5.690329 12.832405 12.702785a12.832405 12.832405 0 0 1-12.832405 12.702784z m-139.562126 0a12.780557 12.780557 0 0 1-12.832405-12.702784c0-7.025418 5.742177-12.715747 12.832405-12.715747 7.090228 0 12.832405 5.690329 12.832405 12.702785a12.845367 12.845367 0 0 1-12.832405 12.702784z m144.863595-66.248911l23.759392-42.74876a4.588557 4.588557 0 0 0-1.879494-6.325468 4.731139 4.731139 0 0 0-6.40324 1.866532l-24.018633 43.163544A165.745418 165.745418 0 0 0 648.101266 278.113215c-23.850127 0-46.429975 4.938532-66.572962 13.713823l-24.018633-43.111696a4.731139 4.731139 0 0 0-6.403241-1.866532 4.588557 4.588557 0 0 0-1.879493 6.325468l23.759392 42.74876c-46.650329 23.811241-78.186937 69.113519-78.186937 121.065316h306.551899c0.051848-52.003646-31.497722-97.254076-78.135088-121.065316zM495.978937 646.766177c0 19.831899 16.280304 35.878886 36.319595 35.878886h24.77043v74.440912c0 18.548658 15.269266 33.59757 34.025316 33.597569 18.794937 0 34.012354-15.035949 34.012355-33.597569v-74.440912h45.937418v74.440912c0 18.548658 15.256304 33.59757 34.012354 33.597569 18.807899 0 34.025316-15.035949 34.025317-33.597569v-74.440912h24.757468c20.052253 0 36.332557-16.046987 36.332557-35.878886V428.680101H495.978937v218.086076z m-47.181772-224.411544c-18.794937 0-34.012354 15.035949-34.012355 33.59757v140.728708c0 18.56162 15.256304 33.59757 34.012355 33.59757 18.807899 0 34.012354-15.035949 34.012354-33.59757V455.952203c0-18.56162-15.204456-33.59757-34.012354-33.59757z" fill="#3A72ED" p-id="21831"></path></svg>