<?xml version="1.0" standalone="no"?><!DOCTYPE svg PUBLIC "-//W3C//DTD SVG 1.1//EN" "http://www.w3.org/Graphics/SVG/1.1/DTD/svg11.dtd"><svg t="1713886015865" class="icon" viewBox="0 0 1024 1024" version="1.1" xmlns="http://www.w3.org/2000/svg" p-id="1574" xmlns:xlink="http://www.w3.org/1999/xlink" width="32" height="32"><path d="M985.742 749.936c0 130.902-106.178 236.964-237.13 236.964H274.336c-130.994 0-237.132-106.062-237.132-236.964V276.018c0-130.864 106.138-236.966 237.132-236.966h474.274c130.954 0 237.13 106.102 237.13 236.966v473.918z" fill="#00B23D" p-id="1575"></path><path d="M319.648 617.454c25.704 0 48.938-9.604 67.166-24.954l212.43 106.138c-0.15 2.006-0.616 3.86-0.616 5.94 0 57.814 46.778 104.598 104.63 104.598 57.78 0 104.634-46.784 104.634-104.598 0-57.736-46.856-104.52-104.634-104.52-25.704 0-48.974 9.604-67.156 24.992L423.712 518.92c0.076-2.006 0.54-3.896 0.54-5.936 0-2.084-0.462-3.972-0.54-6.018l212.39-106.178c18.182 15.39 41.414 25.07 67.156 25.07 57.78 0 104.634-46.782 104.634-104.598 0-57.698-46.856-104.482-104.634-104.482-57.854 0-104.63 46.784-104.63 104.482 0 2.084 0.464 4.012 0.616 6.018L386.814 433.38c-18.226-15.352-41.46-24.994-67.166-24.994-57.778 0-104.596 46.822-104.596 104.598 0 57.724 46.82 104.47 104.596 104.47z" fill="#FFFFFF" p-id="1576"></path><path d="M319.648 617.454c25.704 0 48.938-9.604 67.166-24.954l212.43 106.138c-0.15 2.006-0.616 3.86-0.616 5.94 0 57.814 46.778 104.598 104.63 104.598 57.78 0 104.634-46.784 104.634-104.598 0-57.736-46.856-104.52-104.634-104.52-25.704 0-48.974 9.604-67.156 24.992L423.712 518.92c0.076-2.006 0.54-3.896 0.54-5.936 0-2.084-0.462-3.972-0.54-6.018l212.39-106.178c18.182 15.39 41.414 25.07 67.156 25.07 57.78 0 104.634-46.782 104.634-104.598 0-57.698-46.856-104.482-104.634-104.482-57.854 0-104.63 46.784-104.63 104.482 0 2.084 0.464 4.012 0.616 6.018L386.814 433.38c-18.226-15.352-41.46-24.994-67.166-24.994-57.778 0-104.596 46.822-104.596 104.598 0 57.724 46.82 104.47 104.596 104.47z" fill="#FFFFFF" p-id="1577"></path><path d="M703.26 216.778c57.78 0 104.634 46.784 104.634 104.482 0 57.816-46.856 104.598-104.634 104.598-25.742 0-48.974-9.68-67.156-25.07l-212.39 106.178c0.076 2.044 0.54 3.934 0.54 6.018 0 2.04-0.462 3.93-0.54 5.936l212.39 106.13c18.182-15.388 41.454-24.992 67.156-24.992 57.78 0 104.634 46.784 104.634 104.52 0 57.814-46.856 104.598-104.634 104.598-57.854 0-104.63-46.784-104.63-104.598 0-2.08 0.464-3.934 0.616-5.94L386.814 592.5c-18.226 15.35-41.46 24.954-67.166 24.954-57.778 0-104.596-46.744-104.596-104.47 0-57.776 46.818-104.598 104.596-104.598 25.704 0 48.938 9.642 67.166 24.994l212.43-106.102c-0.15-2.006-0.616-3.934-0.616-6.018 0-57.7 46.778-104.482 104.632-104.482m0-19.754c-66.586 0-121.12 52.53-124.244 118.276l-190.052 94.924c-20.706-14.168-44.422-21.592-69.316-21.592-68.566 0-124.35 55.784-124.35 124.352 0 68.498 55.784 124.224 124.35 124.224 24.91 0 48.626-7.412 69.312-21.552l190.06 94.962c3.164 65.772 57.68 118.312 124.24 118.312 68.588 0 124.388-55.784 124.388-124.352 0-68.526-55.8-124.274-124.388-124.274-24.56 0-48.726 7.594-69.296 21.594L455.94 512.94l177.992-88.982c20.682 14.208 44.404 21.652 69.328 21.652 68.588 0 124.388-55.784 124.388-124.352 0-68.504-55.8-124.234-124.388-124.234z" fill="#00591F" p-id="1578"></path><path d="M728.078 956.122H294.83c-124.896 0-226.506-101.636-226.506-226.566V296.358c0-124.908 101.61-226.526 226.506-226.526h433.248c124.918 0 226.544 101.62 226.544 226.526v433.198c0.002 124.928-101.626 226.566-226.544 226.566zM294.83 89.636c-113.976 0-206.702 92.734-206.702 206.72v433.198c0 114.008 92.726 206.762 206.702 206.762h433.248c113.996 0 206.74-92.754 206.74-206.762V296.358c0-113.986-92.744-206.72-206.74-206.72H294.83z" fill="#00591F" p-id="1579"></path></svg>