<?xml version="1.0" standalone="no"?><!DOCTYPE svg PUBLIC "-//W3C//DTD SVG 1.1//EN" "http://www.w3.org/Graphics/SVG/1.1/DTD/svg11.dtd"><svg t="1715786041240" class="icon" viewBox="0 0 1024 1024" version="1.1" xmlns="http://www.w3.org/2000/svg" p-id="7868" xmlns:xlink="http://www.w3.org/1999/xlink" width="64" height="64"><path d="M490.666667 533.333333h42.666666v384h-42.666666z" fill="#FFFFFF" p-id="7869"></path><path d="M512 554.666667v341.333333-341.333333m42.666667-42.666667h-85.333334v426.666667h85.333334V512z" fill="#333333" p-id="7870"></path><path d="M512 426.666667m-337.066667 0a337.066667 337.066667 0 1 0 674.133334 0 337.066667 337.066667 0 1 0-674.133334 0Z" fill="#FFFFFF" p-id="7871"></path><path d="M512 170.666667c140.8 0 256 115.2 256 256s-115.2 256-256 256-256-115.2-256-256 115.2-256 256-256m0-128c-213.333333 0-384 170.666667-384 384s170.666667 384 384 384 384-170.666667 384-384-170.666667-384-384-384z" fill="#EE5352" p-id="7872"></path></svg>