<?xml version="1.0" standalone="no"?><!DOCTYPE svg PUBLIC "-//W3C//DTD SVG 1.1//EN" "http://www.w3.org/Graphics/SVG/1.1/DTD/svg11.dtd"><svg t="1695174736139" class="icon" viewBox="0 0 1024 1024" version="1.1" xmlns="http://www.w3.org/2000/svg" p-id="1114" width="64" height="64" xmlns:xlink="http://www.w3.org/1999/xlink"><path d="M436.858288 197.192947l299.490265 173.276511c21.392162 12.835297 36.366675 36.366675 36.366675 62.037269v346.553021c0 25.670594-12.835297 49.201972-36.366675 62.037269l-299.490265 173.27651c-21.392162 12.835297-49.201972 12.835297-70.594134 0l-301.629481-175.415726c-21.392162-12.835297-36.366675-36.366675-36.366675-62.03727v-346.55302c0-25.670594 12.835297-49.201972 36.366675-62.03727l299.490265-173.27651c23.531378-10.696081 49.201972-10.696081 72.73335 2.139216z" fill="#FB807D" p-id="1115"></path><path d="M122.39351 558.720481v111.239242c0 21.392162 17.113729 40.645107 40.645107 40.645107 21.392162 0 40.645107-17.113729 40.645108-40.645107v-111.239242c0-21.392162-17.113729-40.645107-40.645108-40.645107-23.531378 0-40.645107 17.113729-40.645107 40.645107zM272.138642 494.543996v222.478482c0 21.392162 17.113729 40.645107 40.645108 40.645108s40.645107-17.113729 40.645107-40.645108v-222.478482c0-21.392162-17.113729-40.645107-40.645107-40.645107s-40.645107 17.113729-40.645108 40.645107zM571.628907 537.32832v151.884348c0 21.392162 17.113729 40.645107 40.645108 40.645108s40.645107-17.113729 40.645107-40.645108v-151.884348c0-21.392162-17.113729-40.645107-40.645107-40.645108s-40.645107 17.113729-40.645108 40.645108z" fill="#FFFFFF" p-id="1116"></path><path d="M421.883775 515.936158v186.111807c0 21.392162 17.113729 40.645107 40.645107 40.645108s40.645107-17.113729 40.645108-40.645108v-186.111807c0-21.392162-17.113729-40.645107-40.645108-40.645108s-40.645107 17.113729-40.645107 40.645108z" p-id="1117"></path><path d="M421.883775 515.936158v186.111807c0 21.392162 17.113729 40.645107 40.645107 40.645108s40.645107-17.113729 40.645108-40.645108v-186.111807c0-21.392162-17.113729-40.645107-40.645108-40.645108s-40.645107 17.113729-40.645107 40.645108z" fill="#FFFFFF" p-id="1118"></path><path d="M421.883775 515.936158v186.111807c0 21.392162 17.113729 40.645107 40.645107 40.645108s40.645107-17.113729 40.645108-40.645108v-186.111807c0-21.392162-17.113729-40.645107-40.645108-40.645108s-40.645107 17.113729-40.645107 40.645108z" fill="#FFFFFF" p-id="1119"></path><path d="M735.642612 256.705941m-239.592212 0a239.592212 239.592212 0 1 0 479.184424 0 239.592212 239.592212 0 1 0-479.184424 0Z" fill="#EE918E" opacity=".6" p-id="1120"></path><path d="M735.642612 513.411883C594.454344 513.411883 478.93667 397.894209 478.93667 256.705941S594.454344 0 735.642612 0s256.705941 115.517674 256.705941 256.705941-115.517674 256.705941-256.705941 256.705942z m0-479.184424C613.70729 34.227459 513.164129 134.770619 513.164129 256.705941S613.70729 479.184424 735.642612 479.184424 958.121094 378.641263 958.121094 256.705941 857.577934 34.227459 735.642612 34.227459z" fill="#F49F9D" p-id="1121"></path><path d="M870.413231 194.668672c8.556865 8.556865 8.556865 21.392162 0 29.949027l-151.884349 151.884348c-8.556865 8.556865-21.392162 8.556865-29.949026 0l-2.139216-2.139216-2.139217-2.139216-89.847079-89.84708c-8.556865-8.556865-8.556865-21.392162 0-29.949026 8.556865-8.556865 21.392162-8.556865 29.949026 0l79.150999 79.150999 136.909835-136.909836c8.556865-8.556865 21.392162-8.556865 29.949027 0z" fill="#FFFFFF" p-id="1122"></path></svg>